# xmcd
#
# Track frame offsets:
#	150
#	12681
#	27066
#	41235
#	55631
#	69607
#	83368
#	97264
#	111285
#	125510
#	139554
#	154826
#	169103
#	184022
#	195837
#	209310
#	222449
#	235300
#	247107
#	259805
#	272174
#	284201
#	297403
#	311799
#	324298
#
# Disc length: 4488 seconds
#
# Revision: 0
# Processed by: cddbd v1.5.2PL0 Copyright (c) Steve Scherf et al.
# Submitted via: dBpowerAMP V4.0
#
DISCID=7f118619
DTITLE=Big Joe Williams - Po' Joe
DYEAR=1900
DGENRE=blues
TTITLE0=Please Don't Go
TTITLE1=Highway 49
TTITLE2=Someday Baby
TTITLE3=Break 'Em On Down
TTITLE4=Little Leg Woman
TTITLE5=Somebody's Been Borrowing That Stuff
TTITLE6=Providence Help The Poor People
TTITLE7=49 Highway Blues
TTITLE8=My Gray Pony
TTITLE9=Stepfather Blues
TTITLE10=Baby Please Don't Go
TTITLE11=Stack O' Dollars
TTITLE12=Wild Cow Blues
TTITLE13=Worried Man Blues
TTITLE14=I Know You're Gonna Miss Me
TTITLE15=Rootin' Ground Hog
TTITLE16=Brother James
TTITLE17=I Won't Be In Hard Luck No More
TTITLE18=Crawling King Snake
TTITLE19=I'm Getting Wild About Her
TTITLE20=Peach Orchard Mama
TTITLE21=Meet Me Around The Corner
TTITLE22=Somebody's Been Worryin'
TTITLE23=Vitamin A
TTITLE24=His Sprit Lives On
EXTD=
EXTT0=
EXTT1=
EXTT2=
EXTT3=
EXTT4=
EXTT5=
EXTT6=
EXTT7=
EXTT8=
EXTT9=
EXTT10=
EXTT11=
EXTT12=
EXTT13=
EXTT14=
EXTT15=
EXTT16=
EXTT17=
EXTT18=
EXTT19=
EXTT20=
EXTT21=
EXTT22=
EXTT23=
EXTT24=
PLAYORDER=
